#define 3aa3cd5efbf0477eef387c2b04e8cc20LZMn1K6Ve9GUuFLu_width 12
#define 3aa3cd5efbf0477eef387c2b04e8cc20LZMn1K6Ve9GUuFLu_height 12
static char 3aa3cd5efbf0477eef387c2b04e8cc20LZMn1K6Ve9GUuFLu_bits[] = {
  0xF0, 0x00, 0xFC, 0x03, 0xFE, 0x07, 0xFE, 0x07, 0xFF, 0x0F, 0xFF, 0x0F, 
  0xFF, 0x0F, 0xFF, 0x0F, 0xFE, 0x07, 0xFE, 0x07, 0xFC, 0x03, 0xF0, 0x00, 
  };
