#define e6001503782944e39125ef87443323905812Y1elbDEKHGRh_width 12
#define e6001503782944e39125ef87443323905812Y1elbDEKHGRh_height 12
static char e6001503782944e39125ef87443323905812Y1elbDEKHGRh_bits[] = {
  0x00, 0x00, 0x00, 0x00, 0x30, 0x00, 0x70, 0x00, 0xF0, 0x00, 0xF0, 0x01, 
  0xF0, 0x01, 0xF0, 0x00, 0x70, 0x00, 0x30, 0x00, 0x00, 0x00, 0x00, 0x00, 
  };
